<svg width="70" height="70" viewBox="0 0 70 70" fill="none" xmlns="http://www.w3.org/2000/svg">
<path d="M56.875 46.6667H18.9584L11.6667 17.5H64.1667L56.875 46.6667Z" fill="#333333"/>
<path d="M4.375 8.75H9.47917L11.6667 17.5M11.6667 17.5L18.9583 46.6667H56.875L64.1667 17.5H11.6667Z" stroke="#333333" stroke-width="2" stroke-linecap="round" stroke-linejoin="round"/>
<path d="M18.9583 61.25C21.3746 61.25 23.3333 59.2912 23.3333 56.875C23.3333 54.4588 21.3746 52.5 18.9583 52.5C16.5421 52.5 14.5833 54.4588 14.5833 56.875C14.5833 59.2912 16.5421 61.25 18.9583 61.25Z" stroke="#333333" stroke-width="2" stroke-linecap="round" stroke-linejoin="round"/>
<path d="M56.875 61.25C59.2912 61.25 61.25 59.2912 61.25 56.875C61.25 54.4588 59.2912 52.5 56.875 52.5C54.4588 52.5 52.5 54.4588 52.5 56.875C52.5 59.2912 54.4588 61.25 56.875 61.25Z" stroke="#333333" stroke-width="2" stroke-linecap="round" stroke-linejoin="round"/>
</svg>
