<svg width="69" height="69" viewBox="0 0 69 69" fill="none" xmlns="http://www.w3.org/2000/svg">
<path d="M51.75 17.25H46C46 10.8962 40.8538 5.75 34.5 5.75C28.1462 5.75 23 10.8962 23 17.25H17.25C14.0875 17.25 11.5 19.8375 11.5 23V57.5C11.5 60.6625 14.0875 63.25 17.25 63.25H51.75C54.9125 63.25 57.5 60.6625 57.5 57.5V23C57.5 19.8375 54.9125 17.25 51.75 17.25ZM28.75 28.75C28.75 30.3312 27.4563 31.625 25.875 31.625C24.2937 31.625 23 30.3312 23 28.75V23H28.75V28.75ZM34.5 11.5C37.6625 11.5 40.25 14.0875 40.25 17.25H28.75C28.75 14.0875 31.3375 11.5 34.5 11.5ZM46 28.75C46 30.3312 44.7062 31.625 43.125 31.625C41.5438 31.625 40.25 30.3312 40.25 28.75V23H46V28.75Z" fill="#333333"/>
</svg>
