<svg width="70" height="70" viewBox="0 0 70 70" fill="none" xmlns="http://www.w3.org/2000/svg">
<path d="M34.6052 68.6C18.4492 68.6 5.30463 55.4554 5.30463 39.298C5.30463 28.9576 10.591 19.5818 19.4474 14.2198C19.8983 13.9467 20.3986 13.7651 20.9197 13.6853C21.4408 13.6055 21.9725 13.6292 22.4844 13.7549C22.9964 13.8806 23.4785 14.1059 23.9034 14.418C24.3283 14.73 24.6875 15.1227 24.9606 15.5736C25.2337 16.0245 25.4154 16.5248 25.4951 17.0459C25.5749 17.5669 25.5513 18.0986 25.4255 18.6106C25.2998 19.1225 25.0745 19.6047 24.7625 20.0296C24.4504 20.4544 24.0577 20.8137 23.6068 21.0868C17.1738 24.9816 13.3336 31.7912 13.3336 39.298C13.3336 51.0286 22.876 60.571 34.6066 60.571C46.3372 60.571 55.8782 51.0286 55.8782 39.298C55.8782 31.668 51.7566 24.577 45.1164 20.797C44.6488 20.5413 44.2368 20.1951 43.9044 19.7785C43.572 19.3619 43.3259 18.8833 43.1805 18.3706C43.035 17.8578 42.9932 17.3213 43.0573 16.7922C43.1214 16.2631 43.2903 15.7521 43.554 15.289C43.8177 14.8259 44.171 14.4199 44.5933 14.0948C45.0156 13.7697 45.4984 13.5319 46.0136 13.3954C46.5288 13.2588 47.066 13.2262 47.5938 13.2995C48.1217 13.3728 48.6297 13.5505 49.0882 13.8222C53.5831 16.3877 57.3206 20.0949 59.9228 24.5686C62.5249 29.0423 63.8994 34.1239 63.9072 39.2994C63.9058 55.4554 50.764 68.6 34.6052 68.6ZM34.3 38.8976C32.0838 38.8976 29.4 37.1 29.4 34.8838V5.9836C29.4 3.7674 32.0838 1.9698 34.3 1.9698C36.5162 1.9698 39.2 3.7674 39.2 5.9836V34.8838C39.2 37.1 36.5162 38.8976 34.3 38.8976Z" fill="#333333"/>
</svg>
