<svg width="70" height="70" viewBox="0 0 70 70" fill="none" xmlns="http://www.w3.org/2000/svg">
<path d="M46.6666 55.4167H23.3333V59.7917C23.3333 60.952 22.8724 62.0648 22.0519 62.8853C21.2314 63.7057 20.1186 64.1667 18.9583 64.1667H16.0416C14.8813 64.1667 13.7685 63.7057 12.9481 62.8853C12.1276 62.0648 11.6666 60.952 11.6666 59.7917V54.9208C9.95994 54.3174 8.4824 53.1995 7.43764 51.7212C6.39289 50.2429 5.83237 48.4769 5.83331 46.6667V37.9167C5.83331 36.1083 6.38165 34.4283 7.32081 33.0342L10.4883 13.2008C10.8172 11.1451 11.8684 9.27404 13.4529 7.92368C15.0374 6.57332 17.0515 5.83216 19.1333 5.83333H50.8666C52.9469 5.83505 54.9585 6.57787 56.5407 7.92858C58.1228 9.27928 59.172 11.1495 59.5 13.2037L62.6587 33.0079C63.6096 34.4079 64.1637 36.0996 64.1637 37.9167V46.6667C64.1647 48.4769 63.6042 50.2429 62.5594 51.7212C61.5146 53.1995 60.0371 54.3174 58.3304 54.9208V59.7917C58.3304 60.952 57.8695 62.0648 57.049 62.8853C56.2285 63.7057 55.1157 64.1667 53.9554 64.1667H51.0387C49.8784 64.1667 48.7656 63.7057 47.9451 62.8853C47.1247 62.0648 46.6637 60.952 46.6637 59.7917L46.6666 55.4167ZM56.1458 29.1958L53.7425 14.1225C53.633 13.4382 53.2835 12.8153 52.7565 12.3653C52.2296 11.9153 51.5596 11.6677 50.8666 11.6667H19.1304C18.4364 11.6663 17.7651 11.9133 17.2369 12.3634C16.7087 12.8136 16.3584 13.4373 16.2487 14.1225L13.8425 29.1987C14.0889 29.1776 14.336 29.1669 14.5833 29.1667H55.4166C55.6636 29.1667 55.9066 29.1764 56.1458 29.1958ZM51.0416 46.6667C51.6162 46.6667 52.1851 46.5535 52.7159 46.3336C53.2467 46.1138 53.729 45.7915 54.1352 45.3853C54.5415 44.979 54.8638 44.4967 55.0836 43.9659C55.3035 43.4351 55.4166 42.8662 55.4166 42.2917C55.4166 41.7171 55.3035 41.1482 55.0836 40.6174C54.8638 40.0866 54.5415 39.6043 54.1352 39.1981C53.729 38.7918 53.2467 38.4696 52.7159 38.2497C52.1851 38.0298 51.6162 37.9167 51.0416 37.9167C49.8813 37.9167 48.7685 38.3776 47.9481 39.1981C47.1276 40.0185 46.6666 41.1313 46.6666 42.2917C46.6666 43.452 47.1276 44.5648 47.9481 45.3853C48.7685 46.2057 49.8813 46.6667 51.0416 46.6667ZM18.9583 46.6667C19.5328 46.6667 20.1018 46.5535 20.6326 46.3336C21.1634 46.1138 21.6457 45.7915 22.0519 45.3853C22.4582 44.979 22.7804 44.4967 23.0003 43.9659C23.2202 43.4351 23.3333 42.8662 23.3333 42.2917C23.3333 41.7171 23.2202 41.1482 23.0003 40.6174C22.7804 40.0866 22.4582 39.6043 22.0519 39.1981C21.6457 38.7918 21.1634 38.4696 20.6326 38.2497C20.1018 38.0298 19.5328 37.9167 18.9583 37.9167C17.798 37.9167 16.6852 38.3776 15.8647 39.1981C15.0443 40.0185 14.5833 41.1313 14.5833 42.2917C14.5833 43.452 15.0443 44.5648 15.8647 45.3853C16.6852 46.2057 17.798 46.6667 18.9583 46.6667ZM21.0116 14.8575C21.7852 14.8575 22.5271 15.1648 23.074 15.7118C23.621 16.2587 23.9283 17.0006 23.9283 17.7742V23.6075C23.9283 24.381 23.621 25.1229 23.074 25.6699C22.5271 26.2169 21.7852 26.5242 21.0116 26.5242C20.2381 26.5242 19.4962 26.2169 18.9493 25.6699C18.4023 25.1229 18.095 24.381 18.095 23.6075V17.7742C18.095 17.0006 18.4023 16.2587 18.9493 15.7118C19.4962 15.1648 20.2381 14.8575 21.0116 14.8575Z" fill="#333333"/>
</svg>
