<svg width="70" height="70" viewBox="0 0 70 70" fill="none" xmlns="http://www.w3.org/2000/svg">
<path fill-rule="evenodd" clip-rule="evenodd" d="M17.5 8.75C17.0941 8.75001 16.6962 8.86296 16.3508 9.07622C16.0054 9.28947 15.7262 9.59461 15.5444 9.9575L8.98187 23.0825C8.82942 23.3867 8.75002 23.7222 8.75 24.0625V32.8125C8.75 33.3927 8.98047 33.9491 9.3907 34.3593C9.80094 34.7695 10.3573 35 10.9375 35H13.125V59.0625C13.125 59.6427 13.3555 60.1991 13.7657 60.6093C14.1759 61.0195 14.7323 61.25 15.3125 61.25H54.6875C55.2677 61.25 55.8241 61.0195 56.2343 60.6093C56.6445 60.1991 56.875 59.6427 56.875 59.0625V35H59.0625C59.6427 35 60.1991 34.7695 60.6093 34.3593C61.0195 33.9491 61.25 33.3927 61.25 32.8125V24.0625C61.25 23.7222 61.1706 23.3867 61.0181 23.0825L54.4556 9.9575C54.2738 9.59461 53.9945 9.28947 53.6492 9.07622C53.3038 8.86296 52.9059 8.75001 52.5 8.75H17.5ZM56.875 24.5788V30.625H48.125V26.25H43.75V30.625H37.1875V26.25H32.8125V30.625H26.25V26.25H21.875V30.625H13.125V24.5788L18.8519 13.125H51.1481L56.875 24.5788ZM28.4375 43.75H32.8125V39.375H28.4375V43.75ZM37.1875 43.75H41.5625V39.375H37.1875V43.75ZM32.8125 50.3125H28.4375V45.9375H32.8125V50.3125ZM37.1875 50.3125H41.5625V45.9375H37.1875V50.3125Z" fill="#333333"/>
</svg>
