<svg width="70" height="70" viewBox="0 0 70 70" fill="none" xmlns="http://www.w3.org/2000/svg">
<path d="M35.8078 12.5132C39.0236 12.7498 41.8362 10.458 42.091 7.406C42.3486 4.3386 39.949 1.6548 36.7332 1.4182C33.5132 1.1844 30.7006 3.4622 30.4514 6.5296C30.2008 9.5956 32.6018 12.2738 35.8078 12.5132ZM59.8962 57.4L57.953 40.6H54.8002C54.8296 39.2 54.8254 39.0446 54.7288 38.1948C54.635 37.3254 54.3592 36.6898 53.9098 36.4896C54.278 36.0976 54.523 35.5992 54.5706 35.0378C54.6038 34.612 54.5258 34.1849 54.3442 33.7983C54.1625 33.4117 53.8836 33.079 53.5346 32.8328L45.5098 27.5576L39.6018 16.4332C38.6232 14.9772 36.9656 13.8026 34.965 13.6346C33.4278 13.5282 32.0138 14.0364 30.87 14.7924L19.1464 23.8672C18.7544 24.1739 18.4712 24.5984 18.3386 25.0782L15.6072 36.0696L15.4 36.3958V36.4H15.3776C14.9198 36.4 14.5026 36.8368 14.343 37.415C14.189 37.982 14 38.731 14 39.3372V40.6H10.9564L9.01318 57.4H16.8658L13.4232 62.909C13.1992 63.336 12.936 63.9394 12.8898 64.5218C12.7204 66.6078 14.3444 68.4208 16.5214 68.5874C18.0768 68.691 19.4152 67.9406 20.2286 66.7422L26.0386 57.4H26.7988L26.6798 56.3682L28.2912 53.7754C28.4662 53.4282 29.022 52.5784 29.0836 52.1752L31.052 43.6212L39.4534 52.4034L42.091 65.6068C42.5124 67.1678 43.8592 68.4558 45.6512 68.5874C47.831 68.7526 49.7392 67.214 49.9128 65.1322L49.889 64.365L48.5114 57.4H59.8962ZM15.3398 39.186C15.4182 38.5238 15.666 38.1472 16.1028 38.1472L16.2666 38.1444C16.7076 38.6778 17.3628 39.0432 18.1188 39.1048C18.5248 39.1333 18.932 39.0682 19.309 38.9146C19.6859 38.7609 20.0225 38.5228 20.293 38.2186C20.4253 38.3423 20.5208 38.5003 20.5688 38.675C20.685 39.0768 20.7522 39.5374 20.7522 39.9168C20.7522 40.1436 20.741 40.6 20.7256 40.6H15.2992C15.281 40.6 15.2866 39.6998 15.3398 39.186ZM23.3632 40.6H21.7042C21.7392 39.2 21.7294 39.0446 21.6384 38.1948C21.56 37.4668 21.3542 36.904 21.028 36.6156L23.0986 27.5968L27.1824 24.437L23.3632 40.6ZM53.8244 40.6H48.3938C48.3714 40.6 48.3784 39.6998 48.4344 39.186C48.5072 38.5238 48.7592 38.1472 49.1974 38.1472C49.826 38.1472 50.3958 38.1276 50.9012 38.1164C51.4094 38.0982 52.1024 38.073 52.9746 38.073C53.3078 38.0721 53.5369 38.2732 53.662 38.6764C53.7824 39.0782 53.8468 39.5388 53.8468 39.9182L53.8244 40.6ZM36.26 37.4038L38.892 26.2934L41.1054 30.4696C41.2804 30.7566 41.4876 30.9932 41.7606 31.2158L49.6664 36.4H48.4722C48.0144 36.4 47.8464 36.8368 47.6882 37.415C47.5384 37.982 47.6 38.731 47.6 39.3372V40.6H44.0552L43.4826 45.542L36.26 37.4038Z" fill="#333333"/>
</svg>
