<svg width="70" height="70" viewBox="0 0 70 70" fill="none" xmlns="http://www.w3.org/2000/svg">
<path d="M55.65 19.25C53.55 15.75 49.7 14 45.5 14H24.5C20.3 14 16.45 15.75 14.35 19.25C6.30002 31.5 4.55002 50.05 10.15 53.9C15.75 57.75 28.35 40.95 35 40.95C41.65 40.95 53.9 57.75 59.85 53.9C65.45 50.05 63.7 31.5 55.65 19.25ZM28 31.5H24.5V35H21V31.5H17.5V28H21V24.5H24.5V28H28V31.5ZM46.9 33.25C46.9 35 45.5 36.4 43.75 36.4C42 36.4 40.6 35 40.6 33.25C40.6 31.5 42 30.1 43.75 30.1C45.5 30.1 46.9 31.5 46.9 33.25ZM53.55 26.25C53.55 28 52.15 29.4 50.4 29.4C48.65 29.4 47.25 28 47.25 26.25C47.25 24.5 48.65 23.1 50.4 23.1C52.15 23.1 53.55 24.5 53.55 26.25Z" fill="#333333"/>
</svg>
