<svg width="29" height="29" viewBox="0 0 29 29" fill="none" xmlns="http://www.w3.org/2000/svg">
<path fill-rule="evenodd" clip-rule="evenodd" d="M8.8754 4.8539C12.6138 4.43998 16.3865 4.43998 20.125 4.8539C22.1949 5.0859 23.8648 6.71594 24.1076 8.79306C24.5506 12.5848 24.5506 16.4152 24.1076 20.207C23.8648 22.2841 22.1949 23.9141 20.125 24.1461C16.3865 24.5601 12.6138 24.5601 8.8754 24.1461C6.80552 23.9141 5.1356 22.2841 4.89273 20.207C4.44982 16.4156 4.44982 12.5856 4.89273 8.79427C5.01558 7.78516 5.4756 6.8471 6.19825 6.13213C6.9209 5.41715 7.86382 4.96717 8.87419 4.8551M14.5002 8.46681C14.7405 8.46681 14.971 8.56229 15.141 8.73225C15.311 8.9022 15.4064 9.13271 15.4064 9.37306V13.5938H19.6271C19.8675 13.5938 20.098 13.6893 20.268 13.8592C20.4379 14.0292 20.5334 14.2597 20.5334 14.5C20.5334 14.7404 20.4379 14.9709 20.268 15.1408C20.098 15.3108 19.8675 15.4063 19.6271 15.4063H15.4064V19.627C15.4064 19.8673 15.311 20.0978 15.141 20.2678C14.971 20.4378 14.7405 20.5332 14.5002 20.5332C14.2598 20.5332 14.0293 20.4378 13.8594 20.2678C13.6894 20.0978 13.5939 19.8673 13.5939 19.627V15.4063H9.37323C9.13288 15.4063 8.90237 15.3108 8.73241 15.1408C8.56246 14.9709 8.46698 14.7404 8.46698 14.5C8.46698 14.2597 8.56246 14.0292 8.73241 13.8592C8.90237 13.6893 9.13288 13.5938 9.37323 13.5938H13.5939V9.37306C13.5939 9.13271 13.6894 8.9022 13.8594 8.73225C14.0293 8.56229 14.2598 8.46681 14.5002 8.46681Z" fill="#333333"/>
</svg>
