<svg width="26" height="25" viewBox="0 0 26 25" fill="none" xmlns="http://www.w3.org/2000/svg">
<g clip-path="url(#clip0_319_5696)">
<path d="M13.1077 1.79517C10.9726 1.79517 8.88546 2.42829 7.1102 3.61448C5.33495 4.80067 3.9513 6.48665 3.13424 8.45921C2.31718 10.4318 2.1034 12.6023 2.51993 14.6964C2.93647 16.7904 3.96461 18.714 5.47434 20.2237C6.98407 21.7334 8.90759 22.7616 11.0017 23.1781C13.0957 23.5946 15.2663 23.3809 17.2388 22.5638C19.2114 21.7467 20.8974 20.3631 22.0835 18.5878C23.2697 16.8126 23.9029 14.7254 23.9029 12.5903C23.9029 9.72729 22.7655 6.98149 20.741 4.957C18.7165 2.93251 15.9707 1.79517 13.1077 1.79517ZM18.2691 16.3619C17.5944 18.386 15.8335 18.9528 14.2884 19.0607V20.4101C14.2884 20.6338 14.1996 20.8483 14.0414 21.0065C13.8832 21.1646 13.6687 21.2535 13.445 21.2535C13.2214 21.2535 13.0068 21.1646 12.8487 21.0065C12.6905 20.8483 12.6017 20.6338 12.6017 20.4101V19.0607C11.0523 18.9154 9.58275 18.3064 8.38479 17.3132C8.30372 17.2375 8.23837 17.1465 8.19246 17.0455C8.14655 16.9445 8.12098 16.8354 8.11722 16.7245C8.11346 16.6136 8.13158 16.5031 8.17055 16.3992C8.20951 16.2953 8.26856 16.2001 8.34431 16.119C8.42007 16.0379 8.51105 15.9726 8.61206 15.9267C8.71308 15.8808 8.82214 15.8552 8.93304 15.8514C9.04393 15.8477 9.15448 15.8658 9.25837 15.9048C9.36226 15.9437 9.45746 16.0028 9.53853 16.0785C10.4213 16.7899 11.4839 17.243 12.6084 17.3875V13.1503C11.7122 13.0129 10.8548 12.6888 10.0918 12.199C9.45012 11.7966 8.96981 11.182 8.73437 10.4621C8.49893 9.74223 8.52325 8.96259 8.80311 8.25878C9.20118 7.23998 10.4359 6.0795 12.6084 5.89059V4.66264C12.6084 4.43896 12.6973 4.22444 12.8554 4.06628C13.0136 3.90812 13.2281 3.81926 13.4518 3.81926C13.6755 3.81926 13.89 3.90812 14.0481 4.06628C14.2063 4.22444 14.2952 4.43896 14.2952 4.66264V5.91758C15.5012 6.05119 16.6461 6.51849 17.6012 7.26697C17.7336 7.42272 17.8049 7.62124 17.8018 7.82562C17.7988 8.03 17.7217 8.22633 17.5848 8.3781C17.4478 8.52986 17.2605 8.62674 17.0575 8.65071C16.8545 8.67468 16.6497 8.62412 16.4812 8.50842C15.837 8.03726 15.0858 7.73355 14.2952 7.62456V11.7605C14.7 11.8482 15.1318 11.9426 15.5838 12.0843C16.1067 12.2147 16.5974 12.4508 17.0255 12.778C17.4537 13.1052 17.8104 13.5167 18.0735 13.987C18.4492 14.7219 18.5195 15.5754 18.2691 16.3619Z" fill="#006A6F"/>
<path d="M15.0785 13.6968C14.8086 13.6158 14.5454 13.5484 14.2891 13.4944V17.3807C15.6385 17.2457 16.3604 16.7734 16.6707 15.8288C16.7742 15.4736 16.738 15.0922 16.5695 14.7628C16.4046 14.4947 16.1877 14.2623 15.9317 14.0792C15.6756 13.8962 15.3855 13.7661 15.0785 13.6968Z" fill="#006A6F"/>
<path d="M10.3686 8.86613C10.2278 9.21591 10.2186 9.60486 10.3426 9.96091C10.4667 10.317 10.7156 10.616 11.0433 10.8025C11.5201 11.1086 12.0516 11.3194 12.6086 11.4232V7.56396C11.1917 7.73264 10.5373 8.43433 10.3686 8.86613Z" fill="#006A6F"/>
</g>
<defs>
<clipPath id="clip0_319_5696">
<rect width="24.2892" height="24.2892" fill="white" transform="translate(0.962891 0.445801)"/>
</clipPath>
</defs>
</svg>
