<svg width="29" height="28" viewBox="0 0 29 28" fill="none" xmlns="http://www.w3.org/2000/svg">
<path fill-rule="evenodd" clip-rule="evenodd" d="M13.7067 7.20557H6.33333C5.04417 7.20557 4 8.31273 4 9.67657V22.0292C4 23.3942 5.04417 24.5002 6.33333 24.5002H19.1667C20.4558 24.5002 21.5 23.3942 21.5 22.0292V12.9876L16.9337 17.8222C16.5349 18.2486 16.0156 18.5433 15.445 18.6669L12.3172 19.3296C10.2755 19.7612 8.4765 17.8561 8.88483 15.6954L9.51017 12.3832C9.62333 11.7859 9.901 11.2364 10.3082 10.8059L13.7067 7.20557Z" fill="black"/>
<path fill-rule="evenodd" clip-rule="evenodd" d="M23.654 5.03801C23.536 4.73938 23.3631 4.46553 23.1441 4.23068C22.9288 4.001 22.6693 3.81725 22.3811 3.69051C22.0972 3.56584 21.7905 3.50146 21.4805 3.50146C21.1704 3.50146 20.8637 3.56584 20.5798 3.69051C20.2916 3.81725 20.0321 4.001 19.8168 4.23068L19.1798 4.90501L22.5071 8.42835L23.1441 7.75285C23.3654 7.51978 23.5386 7.24546 23.654 6.94551C23.8943 6.33239 23.8943 5.65114 23.654 5.03801ZM20.8586 10.1748L17.5301 6.65035L11.957 12.5537C11.8747 12.6413 11.8193 12.7506 11.7971 12.8687L11.1718 16.182C11.0901 16.6137 11.4506 16.994 11.8578 16.9077L14.9868 16.2462C15.1007 16.2208 15.2043 16.1619 15.2843 16.077L20.8586 10.1748Z" fill="black"/>
</svg>
