<svg width="35" height="36" viewBox="0 0 35 36" fill="none" xmlns="http://www.w3.org/2000/svg">
<path d="M35 26.735C35 27.7664 34.5903 28.7555 33.861 29.4848C33.1317 30.2141 32.1425 30.6238 31.1111 30.6238H3.88889C2.85749 30.6238 1.86834 30.2141 1.13903 29.4848C0.409721 28.7555 0 27.7664 0 26.735V9.23496C0 8.20356 0.409721 7.21441 1.13903 6.4851C1.86834 5.75579 2.85749 5.34607 3.88889 5.34607H31.1111C32.1425 5.34607 33.1317 5.75579 33.861 6.4851C34.5903 7.21441 35 8.20356 35 9.23496V26.735Z" fill="#141414"/>
<path d="M0 13.1239H35V22.8461H0V13.1239Z" fill="#EEEEEE"/>
<path d="M31.1111 5.34607H3.88889C2.85749 5.34607 1.86834 5.75579 1.13903 6.4851C0.409721 7.21441 0 8.20356 0 9.23496L0 13.1238H35V9.23496C35 8.20356 34.5903 7.21441 33.861 6.4851C33.1317 5.75579 32.1425 5.34607 31.1111 5.34607Z" fill="#CE1225"/>
<path d="M14.3403 21.4481C14.3403 21.4481 14.3559 21.6911 14.5678 21.8126C14.5678 21.8126 14.5076 21.9954 14.7351 22.1014C14.9626 22.2074 15.7831 22.3746 17.2113 22.3746C18.6395 22.3746 19.4445 22.2229 19.6574 22.116C19.8703 22.01 19.8849 21.7669 19.8849 21.7669C19.8849 21.7669 20.1124 21.6454 20.0978 21.4937C20.0832 21.3421 19.7789 21.1749 19.7789 21.1749C19.7789 21.1749 19.7031 20.9775 19.4902 20.9017C19.2773 20.8258 18.5938 21.2361 17.2871 21.1749C15.9805 21.1136 15.2367 20.9162 14.9937 20.9318C14.7506 20.9474 14.6446 21.1904 14.6446 21.1904C14.6446 21.1904 14.3705 21.3119 14.3403 21.4481Z" fill="#BF9300"/>
<path d="M14.5074 21.4334C14.4948 21.5238 14.6902 21.7222 14.6902 21.7222C14.6902 21.7222 14.6902 21.9497 14.8876 22.0109C15.0849 22.0722 15.8899 22.2238 17.1966 22.2083C18.5033 22.1927 19.4298 22.1169 19.5358 22.0255C19.6417 21.9341 19.7331 21.7368 19.7331 21.7368C19.7331 21.7368 19.946 21.5851 19.9305 21.4636C19.9149 21.342 19.6116 21.2662 19.6116 21.2662C19.6116 21.2662 19.526 21.0834 19.4249 21.0076C19.3238 20.9318 18.6705 21.3109 17.2724 21.3109C15.9045 21.3109 15.1151 20.9765 14.979 20.992C14.8428 21.0076 14.7515 21.2652 14.7515 21.2652C14.7515 21.2652 14.523 21.3275 14.5074 21.4334Z" fill="#EEEEEE"/>
<path d="M20.2796 15.5389C20.2796 15.5389 20.2494 14.8253 19.5961 14.9157C18.9427 15.0071 18.8971 15.326 18.198 15.4018L18.0541 15.4154C17.9377 15.0993 17.8733 14.7664 17.8636 14.4296C17.8636 13.9736 18.0007 13.7763 17.5291 13.5488C17.0586 13.3213 16.9672 13.5332 16.9672 13.5332C16.9672 13.5332 16.6026 13.3504 16.4354 13.4875C16.2682 13.6246 16.3596 13.9736 16.4354 13.8676C16.5112 13.7617 16.8155 14.065 16.8155 14.065C16.9186 14.5696 16.6259 15.116 16.4257 15.4203C16.3566 15.4135 16.3012 15.4106 16.2234 15.4018C15.5244 15.326 15.4787 15.0071 14.8254 14.9157C14.1721 14.8243 14.1419 15.5389 14.1419 15.5389L13.8833 21.0533L14.4151 20.6431L14.418 20.5779L15.5244 19.595L15.7091 19.4103L15.2512 20.749C15.2512 20.749 14.5522 20.7033 14.7496 21.2653C14.7496 21.2653 14.8555 20.9464 15.0383 21.0067C15.2211 21.067 15.7519 21.204 15.7519 21.204L15.9347 21.4928L16.1622 21.2799L16.8758 21.2497C16.8758 21.2497 17.1033 21.31 17.0887 21.5083C17.1302 21.423 17.1429 21.3264 17.1247 21.2332L17.3396 21.2186C17.3169 21.3164 17.3286 21.4191 17.3726 21.5093C17.3571 21.3119 17.5855 21.2507 17.5855 21.2507L18.2991 21.2808L18.5276 21.4938L18.7104 21.205C18.7104 21.205 19.2412 21.0679 19.423 21.0076C19.6048 20.9474 19.7118 21.2663 19.7118 21.2663C19.9091 20.7043 19.2101 20.75 19.2101 20.75L18.7736 19.4735L18.8961 19.596L20.0025 20.5789L20.0054 20.644L20.5372 21.0543L20.2796 15.5389ZM17.2589 18.8814C16.1632 18.2047 16.0727 16.4965 16.0727 16.4965C16.0727 16.4965 16.7504 16.4615 17.2423 16.1164C17.6857 16.5101 18.4421 16.4654 18.4421 16.4654C18.4421 16.4654 18.3905 18.1804 17.2589 18.8814ZM19.7633 15.3269L18.8368 16.2078L18.6812 16.27C18.5218 16.2758 17.7459 16.2778 17.2569 15.8432C16.6493 16.269 15.8141 16.2992 15.8141 16.2992L15.6848 16.2476L14.6591 15.3269L14.3898 15.4378C14.4015 15.3279 14.4618 15.081 14.7962 15.1296C15.3446 15.2083 15.5711 15.5097 16.1486 15.57L16.3119 15.5865L16.2546 15.6604C16.344 15.6604 16.4762 15.6342 16.5734 15.6128L16.6833 15.6235L16.6337 15.7965C16.7115 15.7732 16.8243 15.7061 16.9166 15.6468L17.1694 15.6711L17.2268 15.7508L17.4193 15.6546L17.5486 15.6419C17.6604 15.7071 17.8198 15.7654 17.8198 15.7654L17.85 15.6138C17.9871 15.7051 18.2146 15.7051 18.2146 15.7051C18.1883 15.6838 18.1621 15.6293 18.1348 15.5826L18.2748 15.5681C18.8523 15.5078 19.0779 15.2064 19.6272 15.1276C19.9616 15.08 20.0219 15.326 20.0336 15.4358L19.7633 15.3269Z" fill="#BF9300"/>
<path d="M16.8924 18.8512L16.3451 20.9318L15.4341 20.75L16.3762 18.0764L16.8924 18.8512ZM17.572 18.8512L18.1184 20.9318L19.0303 20.75L18.0882 18.0764L17.572 18.8512Z" fill="#EEEEEE"/>
<path d="M16.3003 16.6637C16.3003 16.6637 16.3761 17.5446 16.7708 18.228V16.4664C16.7708 16.4664 16.5122 16.618 16.3003 16.6637ZM18.199 16.6939C18.199 16.6939 18.1232 17.5747 17.7285 18.2582V16.4965C17.7275 16.4965 17.9861 16.6482 18.199 16.6939Z" fill="#BF9300"/>
<path d="M16.4822 13.6858C16.4822 13.6858 16.5882 13.5798 16.8925 13.7918C17.0898 13.9298 17.2648 14.0348 17.2648 14.0348C17.2648 14.0348 17.3893 13.9036 17.572 13.9337C17.7548 13.9639 17.6527 14.2176 17.6829 14.7484C17.713 15.2802 17.9259 15.5077 17.9259 15.5077L17.6673 15.3561L17.6829 15.5233L17.3941 15.3862L17.257 15.5836L17.12 15.3707L16.8983 15.5058L16.8312 15.325L16.5726 15.462C16.5726 15.462 16.9527 14.9915 16.9829 14.4743C16.9916 14.3197 16.9527 13.9726 16.9527 13.9726C16.9527 13.9726 16.7106 13.6702 16.4822 13.6858Z" fill="#EEEEEE"/>
<path d="M15.1151 21.5394C14.941 21.6434 15.0091 21.7066 15.1151 21.7523C15.221 21.798 15.8588 21.8748 17.1509 21.904C18.4721 21.9341 19.2927 21.7825 19.3987 21.7212C19.5046 21.6609 19.5202 21.554 19.3384 21.5239C19.1556 21.4937 18.2446 21.6454 17.1353 21.6454C15.7684 21.6464 15.1909 21.4937 15.1151 21.5394Z" fill="#BF9300"/>
</svg>
