<svg width="24" height="24" viewBox="0 0 24 24" fill="none" xmlns="http://www.w3.org/2000/svg">
<path fill-rule="evenodd" clip-rule="evenodd" d="M5.25 10.7502V8.00024H3.75V10.7502H1V12.2502H3.75V15.0002H5.25V12.2502H8V10.7502H5.25ZM16.168 12.3502C16.904 11.4782 17.5 9.85024 17.5 8.71024V7.00024C17.5 5.93938 17.0786 4.92196 16.3284 4.17182C15.5783 3.42167 14.5609 3.00024 13.5 3.00024C12.4391 3.00024 11.4217 3.42167 10.6716 4.17182C9.92143 4.92196 9.5 5.93938 9.5 7.00024V8.71024C9.5 9.85024 10.1 11.4832 10.832 12.3522L11.193 12.7802C11.783 13.4792 11.599 14.3682 10.774 14.7702L5.114 17.5322C4.499 17.8322 4 18.6252 4 19.3152V20.0022C4.00053 20.2673 4.10626 20.5213 4.29395 20.7084C4.48165 20.8955 4.73596 21.0005 5.001 21.0002H22C22.2649 21.0002 22.5189 20.8952 22.7064 20.7081C22.8939 20.521 22.9995 20.2671 23 20.0022V19.3152C23 18.6302 22.502 17.8322 21.886 17.5312L16.226 14.7692C15.405 14.3692 15.214 13.4812 15.806 12.7792L16.168 12.3502Z" fill="#333333"/>
</svg>
