<svg width="22" height="23" viewBox="0 0 22 23" fill="none" xmlns="http://www.w3.org/2000/svg">
<g clip-path="url(#clip0_25_4233)">
<path d="M7.66559 1.20896C5.46745 1.97151 3.57177 3.41887 2.25701 5.33843C0.94225 7.25799 0.277701 9.54858 0.360976 11.8737C0.444251 14.1989 1.27096 16.4361 2.71968 18.2567C4.16839 20.0773 6.16275 21.3853 8.40981 21.9886C10.2316 22.4587 12.1402 22.4794 13.9717 22.0488C15.6308 21.6761 17.1647 20.879 18.4232 19.7354C19.7331 18.5088 20.6838 16.9484 21.1732 15.2219C21.7052 13.3445 21.7999 11.3701 21.45 9.45036H11.22V13.694H17.1445C17.0261 14.3708 16.7724 15.0168 16.3985 15.5932C16.0246 16.1697 15.5383 16.6648 14.9686 17.049C14.2451 17.5275 13.4296 17.8495 12.5743 17.9943C11.7166 18.1538 10.8368 18.1538 9.97903 17.9943C9.10966 17.8145 8.28726 17.4557 7.56418 16.9407C6.40256 16.1184 5.53035 14.9502 5.072 13.6029C4.6059 12.2303 4.6059 10.7422 5.072 9.36958C5.39826 8.40745 5.93762 7.53144 6.64981 6.80693C7.46483 5.96259 8.49666 5.35905 9.63211 5.06253C10.7676 4.76601 11.9627 4.78796 13.0865 5.12599C13.9644 5.39547 14.7672 5.86632 15.4309 6.50099C16.0989 5.83641 16.7658 5.1701 17.4315 4.50208C17.7753 4.14286 18.15 3.80083 18.4886 3.43302C17.4755 2.49024 16.2863 1.75665 14.9892 1.27427C12.6271 0.416596 10.0426 0.393547 7.66559 1.20896Z" fill="#0D0D0D"/>
<path d="M7.6617 1.20833C10.0385 0.392363 12.623 0.414806 14.9853 1.27192C16.2826 1.75758 17.4713 2.49471 18.483 3.44098C18.1392 3.8088 17.7765 4.15255 17.4259 4.51005C16.759 5.17578 16.0927 5.83921 15.427 6.50036C14.7633 5.86569 13.9605 5.39484 13.0826 5.12536C11.9592 4.78615 10.7641 4.76292 9.62833 5.05823C8.49258 5.35354 7.46011 5.95596 6.6442 6.79942C5.93201 7.52394 5.39265 8.39995 5.06639 9.36208L1.50342 6.60348C2.77874 4.07445 4.98689 2.13993 7.6617 1.20833Z" fill="#E64B40"/>
<path d="M0.556382 9.33657C0.747887 8.38747 1.06583 7.46834 1.50169 6.60376L5.06466 9.36923C4.59856 10.7418 4.59856 12.2299 5.06466 13.6025C3.87758 14.5192 2.68992 15.4404 1.50169 16.3663C0.410547 14.1943 0.0777661 11.7196 0.556382 9.33657Z" fill="#FFC813"/>
<path d="M11.2151 9.44775H21.4451C21.7951 11.3675 21.7004 13.3419 21.1684 15.2193C20.679 16.9458 19.7282 18.5062 18.4184 19.7328C17.2686 18.8356 16.1136 17.9453 14.9637 17.0481C15.5338 16.6635 16.0203 16.1679 16.3942 15.5908C16.7681 15.0137 17.0217 14.3671 17.1397 13.6896H11.2151C11.2134 12.2768 11.2151 10.8623 11.2151 9.44775Z" fill="#6A8BC4"/>
<path d="M1.50342 16.366C2.69165 15.4494 3.8793 14.5281 5.06639 13.6023C5.52565 14.9501 6.39911 16.1184 7.56201 16.9401C8.28734 17.4527 9.11152 17.8086 9.98201 17.9851C10.8398 18.1446 11.7196 18.1446 12.5773 17.9851C13.4326 17.8403 14.2481 17.5183 14.9715 17.0398C16.1214 17.937 17.2764 18.8273 18.4262 19.7245C17.1679 20.8687 15.634 21.6665 13.9747 22.0396C12.1432 22.4702 10.2345 22.4496 8.41279 21.9795C6.97197 21.5948 5.62614 20.9166 4.45967 19.9875C3.22502 19.0072 2.21662 17.7719 1.50342 16.366Z" fill="#37B24C"/>
</g>
<defs>
<clipPath id="clip0_25_4233">
<rect width="22" height="22" fill="white" transform="translate(0 0.484863)"/>
</clipPath>
</defs>
</svg>
