<svg width="41" height="40" viewBox="0 0 41 40" fill="none" xmlns="http://www.w3.org/2000/svg">
<g clip-path="url(#clip0_319_4627)">
<path d="M35.6789 8.74988H11.5938C8.9375 8.74988 6.75 10.8991 6.75 13.5413V32.7085C6.75 35.3507 8.9375 37.4999 11.5938 37.4999H35.6562C38.3125 37.4999 40.5 35.4546 40.5 32.8124V13.5413C40.5 10.8991 38.3375 8.74988 35.6789 8.74988ZM29.6516 13.5421C30.3614 13.5464 31.054 13.7608 31.6421 14.1583C32.2303 14.5558 32.6875 15.1186 32.9561 15.7756C33.2248 16.4327 33.2928 17.1546 33.1517 17.8502C33.0106 18.5459 32.6666 19.1842 32.1631 19.6846C31.6597 20.185 31.0193 20.5251 30.3228 20.662C29.6263 20.7989 28.9048 20.7265 28.2494 20.4539C27.594 20.1812 27.034 19.7206 26.6401 19.1301C26.2462 18.5396 26.0359 17.8457 26.0359 17.1358C26.0397 16.18 26.4225 15.2647 27.1003 14.5908C27.7782 13.9169 28.6957 13.5394 29.6516 13.5413V13.5421ZM11.5617 35.1046C10.2336 35.1046 9.22891 34.0303 9.22891 32.7093V27.6444L16.2961 21.3327C16.987 20.725 17.8826 20.4018 18.8024 20.4283C19.7221 20.4548 20.5976 20.8291 21.2523 21.4757L26.1461 26.328L17.318 35.1038L11.5617 35.1046ZM38 32.7085C37.9999 33.0233 37.9377 33.3351 37.8171 33.6259C37.6964 33.9167 37.5196 34.1809 37.2968 34.4034C37.074 34.6258 36.8095 34.8022 36.5185 34.9224C36.2275 35.0425 35.9156 35.1042 35.6008 35.1038H20.7344L29.8812 26.0155C30.5304 25.4679 31.3516 25.1665 32.2008 25.1642C33.0501 25.162 33.873 25.4589 34.525 26.003L38 28.9522V32.7085Z" fill="#333333"/>
<path d="M30.5 2.49988H5.5C4.17392 2.49988 2.90215 3.02666 1.96447 3.96434C1.02678 4.90203 0.5 6.1738 0.5 7.49988L0.5 27.4999C0.500914 28.6084 0.869562 29.6853 1.54818 30.5619C2.22679 31.4384 3.17703 32.0651 4.25 32.3436V11.8749C4.25 10.383 4.84263 8.95229 5.89752 7.8974C6.95242 6.84251 8.38316 6.24988 9.875 6.24988H35.3438C35.0652 5.17691 34.4385 4.22667 33.562 3.54806C32.6854 2.86944 31.6085 2.50079 30.5 2.49988Z" fill="#333333"/>
</g>
<defs>
<clipPath id="clip0_319_4627">
<rect width="40" height="40" fill="white" transform="translate(0.5 -0.00012207)"/>
</clipPath>
</defs>
</svg>
