<svg width="27" height="26" viewBox="0 0 27 26" fill="none" xmlns="http://www.w3.org/2000/svg">
<path d="M2.41699 13C2.41754 10.6249 3.1986 8.31584 4.63998 6.42811C6.08135 4.54037 8.10316 3.17863 10.3942 2.55246C12.6853 1.92629 15.1187 2.07039 17.3198 2.96259C19.521 3.85479 21.3679 5.44563 22.5764 7.49029C23.7849 9.53495 24.288 11.9201 24.0082 14.2787C23.7285 16.6372 22.6813 18.8385 21.028 20.5437C19.3747 22.2488 17.2068 23.3634 14.858 23.7159C12.5092 24.0684 10.1097 23.6392 8.02866 22.4944L3.81666 23.777C3.62879 23.8343 3.4289 23.8394 3.23836 23.7917C3.04783 23.7441 2.87382 23.6456 2.73495 23.5068C2.59608 23.3679 2.49757 23.1939 2.44996 23.0033C2.40235 22.8128 2.40743 22.6129 2.46466 22.425L3.74733 18.2065C2.87365 16.6103 2.41613 14.8197 2.41699 13ZM8.91699 11.9167C8.91699 12.204 9.03113 12.4796 9.23429 12.6827C9.43746 12.8859 9.71301 13 10.0003 13H16.5003C16.7876 13 17.0632 12.8859 17.2664 12.6827C17.4695 12.4796 17.5837 12.204 17.5837 11.9167C17.5837 11.6294 17.4695 11.3538 17.2664 11.1507C17.0632 10.9475 16.7876 10.8334 16.5003 10.8334H10.0003C9.71301 10.8334 9.43746 10.9475 9.23429 11.1507C9.03113 11.3538 8.91699 11.6294 8.91699 11.9167ZM10.0003 15.1667C9.71301 15.1667 9.43746 15.2809 9.23429 15.484C9.03113 15.6872 8.91699 15.9627 8.91699 16.25C8.91699 16.5374 9.03113 16.8129 9.23429 17.0161C9.43746 17.2192 9.71301 17.3334 10.0003 17.3334H14.3337C14.621 17.3334 14.8965 17.2192 15.0997 17.0161C15.3029 16.8129 15.417 16.5374 15.417 16.25C15.417 15.9627 15.3029 15.6872 15.0997 15.484C14.8965 15.2809 14.621 15.1667 14.3337 15.1667H10.0003Z" fill="#333333"/>
</svg>
