<svg width="24" height="24" viewBox="0 0 24 24" fill="none" xmlns="http://www.w3.org/2000/svg">
<path d="M12 21.3248C11.7667 21.3248 11.5333 21.2831 11.3 21.1998C11.0667 21.1164 10.8583 20.9914 10.675 20.8248C9.59167 19.8248 8.63333 18.8498 7.8 17.8998C6.96667 16.9498 6.271 16.0291 5.713 15.1378C5.155 14.2464 4.73 13.3881 4.438 12.5628C4.146 11.7374 4 10.9498 4 10.1998C4 7.69976 4.80433 5.70809 6.413 4.22476C8.02167 2.74142 9.884 1.99976 12 1.99976C14.116 1.99976 15.9787 2.74142 17.588 4.22476C19.1973 5.70809 20.0013 7.69976 20 10.1998C20 10.9498 19.8543 11.7374 19.563 12.5628C19.2717 13.3881 18.8467 14.2464 18.288 15.1378C17.7293 16.0291 17.0333 16.9498 16.2 17.8998C15.3667 18.8498 14.4083 19.8248 13.325 20.8248C13.1417 20.9914 12.9333 21.1164 12.7 21.1998C12.4667 21.2831 12.2333 21.3248 12 21.3248ZM12 11.9998C12.55 11.9998 13.021 11.8041 13.413 11.4128C13.805 11.0214 14.0007 10.5504 14 9.99976C13.9993 9.44909 13.8037 8.97842 13.413 8.58776C13.0223 8.19709 12.5513 8.00109 12 7.99976C11.4487 7.99842 10.978 8.19442 10.588 8.58776C10.198 8.98109 10.002 9.45176 10 9.99976C9.998 10.5478 10.194 11.0188 10.588 11.4128C10.982 11.8068 11.4527 12.0024 12 11.9998Z" fill="black" fill-opacity="0.85"/>
</svg>
