<svg width="23" height="23" viewBox="0 0 23 23" fill="none" xmlns="http://www.w3.org/2000/svg">
<g clip-path="url(#clip0_582_7875)">
<path d="M12.0166 22.7512L12.002 22.7473M12.0166 22.7512L12.0127 22.7415L12.0049 22.7424L12.002 22.7473M12.0166 22.7512L12.0273 22.7473M12.0166 22.7512L12.0186 22.7415H12.0234L12.0273 22.7473M12.002 22.7473L11.9951 22.7424H12.0029L12.002 22.7473ZM12.0273 22.7473L12.0283 22.7463V22.7424H12.0254L12.0273 22.7473Z" stroke="#A87300" stroke-width="1.66667"/>
<path d="M11.5449 3.04419C11.6072 3.04426 11.6686 3.061 11.7227 3.09204C11.7767 3.12312 11.8211 3.1681 11.8525 3.22192L14.5146 7.79126L14.6992 8.10864L15.0586 8.18579L20.2275 9.30493V9.30591C20.2885 9.31916 20.3453 9.34802 20.3916 9.38989C20.4379 9.43177 20.4719 9.48579 20.4912 9.54517C20.5104 9.60446 20.5138 9.66777 20.501 9.72876C20.4945 9.75933 20.4847 9.78901 20.4707 9.81665L20.418 9.89282L16.8945 13.8362L16.6494 14.1106L16.6865 14.4758L17.2197 19.7375C17.226 19.7997 17.2159 19.8631 17.1904 19.9202C17.165 19.9769 17.1254 20.0261 17.0752 20.0627C17.0247 20.0995 16.9645 20.1225 16.9023 20.1292C16.8713 20.1324 16.8401 20.132 16.8096 20.1272L16.7207 20.1008L11.8809 17.967L11.5449 17.8196L11.208 17.967L6.36816 20.1008C6.31114 20.126 6.2485 20.1357 6.18652 20.1292C6.12449 20.1225 6.06514 20.0994 6.01465 20.0627C5.96423 20.0261 5.92396 19.977 5.89844 19.9202C5.87292 19.8631 5.86283 19.7997 5.86914 19.7375L6.40234 14.4758L6.43945 14.1106L6.19434 13.8362L2.6709 9.8938H2.66992C2.62827 9.84724 2.59981 9.78989 2.58691 9.72876C2.5741 9.66778 2.57748 9.60444 2.59668 9.54517C2.61597 9.48575 2.65093 9.43179 2.69727 9.38989C2.74354 9.34817 2.80043 9.3191 2.86133 9.30591L8.03027 8.18579L8.38965 8.10864L8.57422 7.79126L11.2363 3.22192C11.2677 3.16811 11.3122 3.12313 11.3662 3.09204C11.4204 3.06093 11.4825 3.04419 11.5449 3.04419Z" fill="#FFC813" stroke="#A87300" stroke-width="1.66667"/>
</g>
<defs>
<clipPath id="clip0_582_7875">
<rect width="22.8571" height="22.8571" fill="white" transform="translate(0.115234 0.0715332)"/>
</clipPath>
</defs>
</svg>
