<svg width="26" height="26" viewBox="0 0 26 26" fill="none" xmlns="http://www.w3.org/2000/svg">
<path fill-rule="evenodd" clip-rule="evenodd" d="M13.0003 4.33341C11.4845 4.33314 9.99509 4.73044 8.68078 5.48568C7.36647 6.24091 6.27323 7.32766 5.51019 8.63745C4.74714 9.94724 4.34097 11.4342 4.33223 12.9501C4.32348 14.4659 4.71246 15.9575 5.46034 17.276C5.96583 16.619 6.61564 16.0871 7.35951 15.7214C8.10339 15.3557 8.92141 15.1659 9.75034 15.1667H16.2503C17.0793 15.1659 17.8973 15.3557 18.6412 15.7214C19.385 16.0871 20.0348 16.619 20.5403 17.276C21.2882 15.9575 21.6772 14.4659 21.6684 12.9501C21.6597 11.4342 21.2535 9.94724 20.4905 8.63745C19.7274 7.32766 18.6342 6.24091 17.3199 5.48568C16.0056 4.73044 14.5162 4.33314 13.0003 4.33341ZM21.6053 19.5824C21.741 19.4055 21.871 19.2242 21.9953 19.0386C23.1963 17.254 23.8365 15.1512 23.8337 13.0001C23.8337 7.01683 18.9836 2.16675 13.0003 2.16675C7.01709 2.16675 2.167 7.01683 2.167 13.0001C2.16359 15.3799 2.94705 17.6941 4.39542 19.5824L4.39 19.6019L4.77459 20.0493C5.79063 21.2372 7.05217 22.1907 8.47226 22.8439C9.89234 23.4972 11.4372 23.8348 13.0003 23.8334C13.2343 23.8334 13.4669 23.8262 13.698 23.8117C15.6528 23.6885 17.537 23.0349 19.1483 21.9213C19.9188 21.3897 20.6173 20.7605 21.2261 20.0493L21.6107 19.6019L21.6053 19.5824ZM13.0003 6.50008C12.1384 6.50008 11.3117 6.84249 10.7022 7.45198C10.0927 8.06148 9.75034 8.88813 9.75034 9.75008C9.75034 10.612 10.0927 11.4387 10.7022 12.0482C11.3117 12.6577 12.1384 13.0001 13.0003 13.0001C13.8623 13.0001 14.6889 12.6577 15.2984 12.0482C15.9079 11.4387 16.2503 10.612 16.2503 9.75008C16.2503 8.88813 15.9079 8.06148 15.2984 7.45198C14.6889 6.84249 13.8623 6.50008 13.0003 6.50008Z" fill="black"/>
</svg>
