<svg width="20" height="21" viewBox="0 0 20 21" fill="none" xmlns="http://www.w3.org/2000/svg">
<path d="M19.41 9.89499L10.58 1.06499C10.21 0.694985 9.7 0.484985 9.17 0.484985H2C0.9 0.484985 0 1.38499 0 2.48499V9.65499C0 10.185 0.21 10.695 0.59 11.065L9.42 19.895C10.2 20.675 11.47 20.675 12.25 19.895L19.42 12.725C20.2 11.945 20.2 10.685 19.41 9.89499ZM4.5 6.48499C3.67 6.48499 3 5.81499 3 4.98499C3 4.15499 3.67 3.48499 4.5 3.48499C5.33 3.48499 6 4.15499 6 4.98499C6 5.81499 5.33 6.48499 4.5 6.48499Z" fill="#333333"/>
</svg>
