<svg width="47" height="46" viewBox="0 0 47 46" fill="none" xmlns="http://www.w3.org/2000/svg">
<path fill-rule="evenodd" clip-rule="evenodd" d="M23.4486 30.6666C19.8902 30.6666 16.4777 29.253 13.9616 26.7369C11.4454 24.2208 10.0319 20.8082 10.0319 17.2499C10.0319 13.6916 11.4454 10.279 13.9616 7.7629C16.4777 5.24679 19.8902 3.83325 23.4486 3.83325C27.0069 3.83325 30.4195 5.24679 32.9356 7.7629C35.4517 10.279 36.8652 13.6916 36.8652 17.2499C36.8652 20.8082 35.4517 24.2208 32.9356 26.7369C30.4195 29.253 27.0069 30.6666 23.4486 30.6666ZM23.4486 11.4999C23.9929 11.4999 24.3571 12.1516 25.0854 13.4607L25.2732 13.798C25.4802 14.1698 25.5837 14.3538 25.7447 14.4765C25.9077 14.5992 26.1089 14.6452 26.5114 14.7353L26.8756 14.8196C28.2901 15.1397 28.9973 15.2988 29.166 15.8393C29.3347 16.3798 28.8517 16.9452 27.8876 18.0722L27.6384 18.3635C27.3643 18.6836 27.2263 18.8427 27.165 19.042C27.1037 19.2413 27.1247 19.4541 27.165 19.8815L27.2033 20.2706C27.349 21.7752 27.4218 22.5284 26.9829 22.8619C26.5421 23.1954 25.8789 22.8907 24.5545 22.2812L24.2133 22.124C23.8357 21.9515 23.6479 21.8653 23.4486 21.8653C23.2492 21.8653 23.0614 21.9515 22.6838 22.124L22.3427 22.2812C21.0182 22.8926 20.3551 23.1954 19.9142 22.8619C19.4734 22.5284 19.5482 21.7752 19.6938 20.2706L19.7322 19.8815C19.7724 19.4541 19.7935 19.2413 19.7322 19.042C19.6708 18.8427 19.5328 18.6836 19.2587 18.3635L19.0096 18.0722C18.0455 16.9452 17.5625 16.3817 17.7312 15.8393C17.8998 15.2988 18.6071 15.1397 20.0216 14.8196L20.3857 14.7353C20.7882 14.6452 20.9895 14.6011 21.1524 14.4765C21.3134 14.3538 21.4169 14.1698 21.6239 13.798L21.8117 13.4607C22.5401 12.1516 22.9042 11.4999 23.4486 11.4999Z" fill="black" fill-opacity="0.8"/>
<path d="M37.8325 24.9072L40.7133 27.8876C41.7483 28.9609 42.2658 29.4957 42.4459 29.9499C42.8542 30.9849 42.5034 32.1311 41.616 32.6754C41.225 32.9131 40.5235 32.9879 39.1148 33.1354C38.3213 33.2198 37.9226 33.2619 37.591 33.3904C36.8454 33.6759 36.2685 34.2759 35.9906 35.0464C35.8679 35.3914 35.8277 35.8015 35.7472 36.6238C35.6034 38.0804 35.5306 38.8088 35.3006 39.2132C34.7754 40.1332 33.6657 40.4954 32.6671 40.0719C32.2301 39.8879 31.7126 39.3512 30.6757 38.2798L25.9185 33.3539C28.4249 32.97 30.807 32.0062 32.8753 30.5395C34.9437 29.0728 36.6411 27.1454 37.8325 24.9072ZM20.9754 33.3559L16.2183 38.2817C15.1833 39.355 14.6658 39.8898 14.2288 40.0757C13.2302 40.4974 12.1204 40.1351 11.5953 39.2151C11.3653 38.8126 11.2944 38.0843 11.1506 36.6276C11.0682 35.8034 11.0279 35.3933 10.9053 35.0483C10.6293 34.2778 10.0504 33.6779 9.30486 33.3923C8.97327 33.2639 8.57652 33.2236 7.78111 33.1393C6.37428 32.9898 5.67086 32.915 5.27986 32.6774C4.39244 32.133 4.04169 30.9849 4.44994 29.9519C4.6301 29.4976 5.14761 28.9609 6.18261 27.8895L9.06336 24.9072C10.2548 27.1454 11.9522 29.0747 14.0205 30.5414C16.0889 32.0082 18.471 32.9719 20.9774 33.3559" fill="black" fill-opacity="0.8"/>
</svg>
