<svg width="22" height="22" viewBox="0 0 22 22" fill="none" xmlns="http://www.w3.org/2000/svg">
<path d="M9.81222 2.79376C9.91111 2.62407 10.0528 2.48328 10.223 2.38543C10.3933 2.28758 10.5863 2.23608 10.7827 2.23608C10.9791 2.23608 11.172 2.28758 11.3423 2.38543C11.5126 2.48328 11.6542 2.62407 11.7531 2.79376L14.2645 7.105L19.1419 8.1617C19.3337 8.20339 19.5113 8.29464 19.6569 8.42635C19.8025 8.55806 19.911 8.72564 19.9716 8.91237C20.0323 9.0991 20.0429 9.29846 20.0025 9.49058C19.9621 9.6827 19.872 9.86087 19.7412 10.0073L16.4166 13.7282L16.9198 18.6927C16.9396 18.8882 16.9078 19.0855 16.8276 19.2648C16.7474 19.4442 16.6215 19.5994 16.4625 19.7149C16.3035 19.8304 16.1171 19.9021 15.9217 19.923C15.7263 19.9439 15.5289 19.9132 15.3491 19.8339L10.7827 17.8211L6.21622 19.8339C6.03644 19.9132 5.839 19.9439 5.64363 19.923C5.44825 19.9021 5.26177 19.8304 5.1028 19.7149C4.94384 19.5994 4.81796 19.4442 4.73772 19.2648C4.65749 19.0855 4.62571 18.8882 4.64556 18.6927L5.14875 13.7282L1.82411 10.0082C1.69312 9.86178 1.60285 9.68354 1.56228 9.4913C1.52172 9.29906 1.5323 9.09954 1.59295 8.91267C1.65361 8.72579 1.76222 8.55809 1.90795 8.42632C2.05368 8.29454 2.23142 8.2033 2.42344 8.1617L7.30078 7.105L9.81222 2.79376Z" fill="#FFC813"/>
</svg>
