<svg width="19" height="21" viewBox="0 0 19 21" fill="none" xmlns="http://www.w3.org/2000/svg">
<path d="M9.21332 12.1255C6.0049 12.1255 3.39307 9.51366 3.39307 6.30524C3.39307 3.09682 6.0049 0.484985 9.21332 0.484985C12.4217 0.484985 15.0336 3.09682 15.0336 6.30524C15.0336 9.51366 12.4217 12.1255 9.21332 12.1255ZM9.21332 1.70939C6.6778 1.70939 4.61747 3.76972 4.61747 6.30524C4.61747 8.84076 6.6778 10.9011 9.21332 10.9011C11.7488 10.9011 13.8092 8.84076 13.8092 6.30524C13.8092 3.76972 11.7488 1.70939 9.21332 1.70939Z" fill="#0D0D0D" fill-opacity="0.85"/>
<path d="M15.9287 20.4846H2.1169C1.34341 20.4846 0.656633 20.0823 0.27856 19.4128C-0.102983 18.7365 -0.0925769 17.9317 0.309777 17.2623C1.79085 14.8066 5.20739 13.2214 9.02282 13.2214C12.8382 13.2214 16.2548 14.8066 17.7359 17.2623C18.1382 17.9317 18.1486 18.733 17.7671 19.4128C17.389 20.0857 16.6988 20.4846 15.9287 20.4846ZM9.02282 14.4458C5.68259 14.4458 2.6025 15.8298 1.35728 17.8936C1.18386 18.178 1.18039 18.5214 1.34341 18.8093C1.50643 19.0972 1.78739 19.2602 2.1169 19.2602H15.9253C16.2548 19.2602 16.5357 19.0972 16.6988 18.8093C16.8618 18.5214 16.8548 18.178 16.6849 17.8936C15.4431 15.8333 12.363 14.4458 9.01935 14.4458H9.02282Z" fill="#0D0D0D" fill-opacity="0.85"/>
</svg>
