<svg width="180" height="162" viewBox="0 0 180 162" fill="none" xmlns="http://www.w3.org/2000/svg">
<path fill-rule="evenodd" clip-rule="evenodd" d="M29.8082 69.858C56.0702 23.283 69.2012 0 90.0002 0C110.799 0 123.93 23.283 150.192 69.858L153.468 75.654C175.293 114.354 186.21 133.704 176.346 147.852C166.482 162 142.074 162 93.2762 162H86.7242C37.9262 162 13.5182 162 3.65421 147.852C-6.20979 133.704 4.70721 114.354 26.5322 75.654L29.8082 69.858ZM90.0002 38.25C91.7904 38.25 93.5073 38.9612 94.7732 40.227C96.039 41.4929 96.7502 43.2098 96.7502 45V90C96.7502 91.7902 96.039 93.5071 94.7732 94.773C93.5073 96.0388 91.7904 96.75 90.0002 96.75C88.21 96.75 86.4931 96.0388 85.2272 94.773C83.9614 93.5071 83.2502 91.7902 83.2502 90V45C83.2502 43.2098 83.9614 41.4929 85.2272 40.227C86.4931 38.9612 88.21 38.25 90.0002 38.25ZM90.0002 126C92.3872 126 94.6763 125.052 96.3642 123.364C98.052 121.676 99.0002 119.387 99.0002 117C99.0002 114.613 98.052 112.324 96.3642 110.636C94.6763 108.948 92.3872 108 90.0002 108C87.6133 108 85.3241 108.948 83.6363 110.636C81.9484 112.324 81.0002 114.613 81.0002 117C81.0002 119.387 81.9484 121.676 83.6363 123.364C85.3241 125.052 87.6133 126 90.0002 126Z" fill="#C25454"/>
</svg>
